<svg width="200" height="25" viewBox="0 0 200 25" fill="none" xmlns="http://www.w3.org/2000/svg">
<g clip-path="url(#clip0_0_94)">
<path d="M24.3902 6.47812C23.4443 5.53149 22.2931 5.04107 20.9483 5.04107H0V20.9626H20.9483C22.2817 20.9626 23.4443 20.4836 24.3902 19.537C25.3362 18.5903 25.8263 17.427 25.8263 16.0926C25.8263 14.9065 25.4502 13.8686 24.7094 12.9904C25.4502 12.1122 25.8263 11.0744 25.8263 9.88824C25.8263 8.55385 25.3476 7.40193 24.3902 6.45531M3.53317 14.781H20.9483C21.3244 14.781 21.6321 14.9065 21.8828 15.1574C22.145 15.4311 22.2703 15.7277 22.2703 16.104C22.2703 16.4804 22.145 16.7769 21.8828 17.0392C21.6093 17.313 21.313 17.4384 20.9369 17.4384H3.53317V14.781ZM20.9483 11.234H3.53317V8.58806H20.9483C21.3244 8.58806 21.6321 8.71352 21.8828 8.96443C22.145 9.23815 22.2703 9.53469 22.2703 9.89965C22.2703 10.2646 22.145 10.5726 21.8828 10.8463C21.6093 11.1086 21.313 11.234 20.9369 11.234" fill="white"/>
<path d="M63.3121 12.4886C63.8021 11.7017 64.0529 10.8349 64.0529 9.91105C64.0529 8.57666 63.5742 7.42474 62.6168 6.47812C61.6708 5.53149 60.5197 5.04107 59.1748 5.04107H38.2266V8.58806H59.1748C59.5395 8.58806 59.8587 8.71352 60.1094 8.96443C60.3716 9.23815 60.4969 9.53469 60.4969 9.89965C60.4969 10.2646 60.3716 10.584 60.1208 10.8349C59.8473 11.0972 59.5509 11.2226 59.1748 11.2226H38.2266V20.9626H41.7597V14.7696H56.0862C57.3057 14.7696 58.3542 15.203 59.209 16.0698C60.0866 16.948 60.5083 17.9631 60.5083 19.1948V20.9626H64.0529V19.1948C64.0529 17.1419 63.369 15.3513 62.0014 13.8686C62.5256 13.5037 62.9587 13.0361 63.3121 12.4772" fill="white"/>
<path d="M80.5097 5.05275H76.9766V20.9743H80.5097V5.05275Z" fill="white"/>
<path d="M96.9687 1.52588e-05H93.4355V25H96.9687V1.52588e-05Z" fill="white"/>
<path d="M113.426 5.04107H109.893V20.9626H113.426V5.04107Z" fill="white"/>
<path d="M144.2 5.04072H126.352V20.9622H144.2C146.388 20.9622 148.28 20.1753 149.83 18.6242C151.38 17.0731 152.166 15.1799 152.166 13.0015C152.166 10.8231 151.38 8.91845 149.83 7.36736C148.28 5.81626 146.388 5.02931 144.2 5.02931M148.622 13.0129C148.622 14.2446 148.2 15.2597 147.323 16.1379C146.456 17.0047 145.442 17.4381 144.2 17.4381H129.873V8.58771H144.2C145.419 8.58771 146.468 9.0211 147.323 9.87648C148.2 10.7547 148.622 11.7811 148.622 13.0129Z" fill="white"/>
<path d="M165.272 7.42474C163.722 8.97583 162.936 10.8691 162.936 13.0589C162.936 15.2486 163.722 17.1305 165.272 18.6816C166.822 20.2327 168.714 21.0196 170.902 21.0196H188.762V11.2797H175.324V14.8267H185.229V17.484H170.902C169.671 17.484 168.646 17.0621 167.779 16.1839C166.902 15.3057 166.48 14.2906 166.48 13.0589C166.48 11.8271 166.902 10.8007 167.779 9.92246C168.634 9.06708 169.683 8.63368 170.902 8.63368H188.762V5.08669H170.902C168.714 5.08669 166.822 5.87365 165.272 7.42474Z" fill="white"/>
<path d="M198.313 7.56121C198.313 7.42435 198.29 7.29889 198.244 7.18484C198.199 7.07079 198.131 6.96815 198.051 6.88831C197.971 6.80847 197.868 6.74004 197.754 6.69442C197.64 6.6488 197.515 6.62599 197.378 6.62599H194.586V9.45446H195.258V8.50784H197.333C197.435 8.50784 197.504 8.53065 197.561 8.58767C197.618 8.6447 197.64 8.71313 197.64 8.80437V9.45446H198.313V8.80437C198.313 8.66751 198.29 8.53065 198.244 8.41659C198.21 8.32535 198.165 8.25692 198.108 8.18849C198.165 8.12006 198.21 8.04023 198.244 7.94898C198.29 7.83493 198.313 7.69807 198.313 7.56121ZM197.561 7.80072C197.561 7.80072 197.435 7.88055 197.333 7.88055H195.258V7.26468H197.333C197.424 7.26468 197.504 7.28749 197.561 7.34451C197.618 7.40154 197.64 7.46997 197.64 7.57262C197.64 7.67526 197.618 7.74369 197.561 7.80072Z" fill="white"/>
<path d="M197.549 5.24611H195.11C193.754 5.24611 192.648 6.3524 192.648 7.70961V8.39392C192.648 9.75113 193.754 10.8574 195.11 10.8574H197.549C198.906 10.8574 200.011 9.75113 200.011 8.39392V7.70961C200.011 6.3524 198.906 5.24611 197.549 5.24611ZM199.316 8.38251C199.316 9.36335 198.518 10.1503 197.549 10.1503H195.11C194.13 10.1503 193.344 9.35195 193.344 8.38251V7.69821C193.344 6.71737 194.141 5.93042 195.11 5.93042H197.549C198.529 5.93042 199.316 6.72877 199.316 7.69821V8.38251Z" fill="white"/>
</g>
<defs>
<clipPath id="clip0_0_94">
<rect width="200" height="25" fill="white"/>
</clipPath>
</defs>
</svg>
